<?xml version="1.0" encoding="UTF-8"?>
<svg width="315px" height="64px" viewBox="0 0 315 64" version="1.1" xmlns="http://www.w3.org/2000/svg" xmlns:xlink="http://www.w3.org/1999/xlink">
    <title>logo</title>
    <g id="Website-design-layouts" stroke="none" stroke-width="1" fill="none" fill-rule="evenodd">
        <g id="Lifestyle" transform="translate(-72.000000, -45.000000)" fill="#FFFFFF" fill-rule="nonzero">
            <g id="Top-nav" transform="translate(72.000000, 23.000000)">
                <g id="logo" transform="translate(0.000000, 22.000000)">
                    <g id="Group-10" transform="translate(79.219808, 9.514888)">
                        <path d="M93.4981409,18.3394452 C93.1697684,19.7000535 92.476554,20.9453488 91.4931085,21.9412998 C90.5806387,22.8057449 89.211934,23.2379674 87.3749882,23.2379674 L84.6255725,23.2379674 C84.1426023,23.2648739 83.6717185,23.0809007 83.334908,22.7337078 C83.0075613,22.3552726 82.8397151,21.8646455 82.8666669,21.365003 L82.8666669,5.07861741 C82.8666669,3.57184159 83.0587658,2.6413625 83.4369605,2.27517395 C83.8151553,1.90898541 84.7036127,1.71088341 86.0963298,1.67486486 C86.2126458,1.47320139 86.2630192,1.24022444 86.240404,1.00852177 C86.2582376,0.772588873 86.2191201,0.535824772 86.1263453,0.318166316 C83.6730821,0.374195165 82.0402414,0.400208559 81.2278231,0.396206498 C80.5074522,0.396206498 78.8966228,0.370193104 76.3953349,0.318166316 C76.2517366,0.522699649 76.1857555,0.771725084 76.2092391,1.02052795 C76.178672,1.25585954 76.243521,1.49363943 76.3893318,1.68086795 C77.7820489,1.72889268 78.6705063,1.93299777 79.0547042,2.28117704 C79.438902,2.62935632 79.6249978,3.55983541 79.6249978,5.05460504 L79.6249978,19.9422705 C79.6249978,21.431037 79.4328989,22.3435069 79.0547042,22.7217016 C78.6765094,23.0998963 77.788052,23.3220107 76.3893318,23.3220107 C76.2488048,23.5277731 76.1850601,23.7763776 76.2092391,24.0243723 C76.1767951,24.2607836 76.2442195,24.5000314 76.3953349,24.6847123 L81.2638416,24.6126752 L89.2719649,24.6126752 C89.9443111,24.6126752 91.4390807,24.6366876 93.7562738,24.6847123 C94.1584809,22.7096954 94.4826478,20.6566383 94.7287745,18.5135349 C94.349468,18.3198523 93.9162868,18.258573 93.4981409,18.3394452 Z" id="Path"></path>
                        <path d="M116.321893,23.3880447 C116.069377,23.3427969 115.82202,23.2724106 115.583512,23.1779365 C115.279785,23.07719 115.011127,22.8918367 114.809114,22.6436614 C114.596759,22.3554789 114.436274,22.0324787 114.334869,21.6891699 L107.581392,2.95352322 C107.048058,3.32523013 106.427667,3.55270673 105.780465,3.61386322 L98.2645951,21.166901 C98.0201426,21.8887912 97.558946,22.5176957 96.9439151,22.9678283 C96.3312869,23.2815504 95.6568212,23.4558045 94.9688982,23.478091 C94.8462534,23.6530461 94.788893,23.8654921 94.8068147,24.0784001 C94.7738488,24.2924022 94.832703,24.5103807 94.9688982,24.6787092 C96.5957358,24.6306845 97.5802427,24.6066721 97.9104127,24.6066721 C99.0870185,24.6066721 100.48774,24.6306845 102.112576,24.6787092 C102.221694,24.498785 102.266165,24.2870188 102.238641,24.0784001 C102.25381,23.8704302 102.210122,23.6623909 102.112576,23.478091 L101.512267,23.412057 C101.31052,23.3913331 101.1101,23.3592658 100.911958,23.3160076 C100.721049,23.2905288 100.536126,23.2315972 100.365677,23.1419179 L99.9694729,22.883785 C99.8172568,22.8071295 99.7396006,22.6342819 99.7833771,22.4695718 C99.8281519,22.2858974 99.8602441,22.0993617 99.8794265,21.9112843 L101.680354,17.2168672 C101.740025,17.0352647 101.8638,16.8816138 102.028533,16.7846447 C102.286653,16.6858831 102.563283,16.6449008 102.83895,16.6645829 L109.784527,16.6645829 L111.699513,22.1514079 C111.738124,22.2745418 111.764268,22.4012427 111.777553,22.5296027 C111.789499,22.6286657 111.779245,22.7291456 111.747537,22.8237541 C111.721088,22.906197 111.680458,22.9833935 111.627475,23.0518716 C111.562126,23.1264566 111.476678,23.1806428 111.381349,23.2079519 L111.075191,23.3040014 C110.944339,23.3313485 110.812067,23.3513898 110.678987,23.3640323 L110.246765,23.412057 L109.766517,23.4540787 C109.556409,23.4540787 109.388323,23.4540787 109.262258,23.4540787 C109.164712,23.6383785 109.121024,23.8464178 109.136193,24.0543878 C109.108669,24.2630065 109.15314,24.4747727 109.262258,24.6546969 C110.877089,24.6066721 112.317831,24.5826598 113.572477,24.5826598 C114.448928,24.5826598 115.703574,24.6066721 117.336415,24.6546969 C117.47261,24.4863683 117.531464,24.2683898 117.498498,24.0543878 C117.51642,23.8414798 117.45906,23.6290338 117.336415,23.4540787 L116.321893,23.3880447 Z M103.409244,15.2838719 L103.031049,15.2838719 C102.947307,15.2939358 102.862661,15.2939358 102.778919,15.2838719 C102.720192,15.2690269 102.665064,15.2424837 102.616836,15.2058318 C102.583176,15.1710229 102.560251,15.1272576 102.550802,15.0797669 C102.531129,15.0234043 102.531129,14.9620397 102.550802,14.9056772 L105.912533,6.38729122 L106.122641,6.38729122 L109.226239,15.2838719 L103.409244,15.2838719 Z" id="Shape"></path>
                        <path d="M136.714392,3.39775195 L133.064513,3.32571486 C132.930073,3.49509085 132.869489,3.71146222 132.896427,3.92602395 C132.865882,4.14083844 132.926859,4.35861393 133.064513,4.52633304 C133.547893,4.56414534 134.028854,4.62827341 134.505255,4.71843195 C134.811032,4.79525109 135.093378,4.94569807 135.327678,5.15665759 C135.598409,5.4007577 135.774765,5.73222214 135.825935,6.09313977 C135.90765,6.66965666 135.941782,7.2519204 135.927987,7.83403613 L135.927987,18.6936276 C135.927987,19.3479645 135.837941,19.6781345 135.687864,19.6781345 C135.628296,19.6734604 135.571655,19.6503843 135.52578,19.6121005 C135.436484,19.5464389 135.355808,19.4697972 135.285657,19.383983 L135.003511,19.0598161 C134.913465,18.9517605 134.781397,18.7776709 134.601304,18.5315441 C134.421212,18.2854174 134.259128,18.0693061 134.109051,17.8772072 L122.829243,3.39174886 L118.386956,3.32571486 C118.262875,3.49999504 118.20537,3.71297644 118.224872,3.92602395 C118.18955,4.14015046 118.248662,4.35908292 118.386956,4.52633304 C119.024851,4.55781727 119.631887,4.81039521 120.10384,5.24070086 C120.533883,5.59342922 120.84251,6.07211537 120.986294,6.60940559 L120.986294,20.176391 C120.986294,21.563105 120.818208,22.4335532 120.482035,22.7817325 C120.145861,23.1299118 119.359457,23.3820416 118.128823,23.4961003 C117.996187,23.6663922 117.935817,23.882002 117.960736,24.0964094 C117.932394,24.3110731 117.99313,24.5279847 118.128823,24.6967185 C120.269925,24.6486938 121.496557,24.6246814 121.808718,24.6246814 L125.458597,24.6967185 C125.581838,24.5225876 125.63145,24.3068856 125.596668,24.0964094 C125.606263,23.8874583 125.558516,23.6798633 125.458597,23.4961003 C124.786251,23.4240632 124.306003,23.3520261 124.017855,23.2919952 C123.712078,23.2151761 123.429732,23.0647291 123.195432,22.8537696 C122.924701,22.6096695 122.748345,22.278205 122.697175,21.9172874 C122.61546,21.3407705 122.581328,20.7585068 122.595123,20.176391 L122.595123,10.2112601 C122.595123,9.14871304 122.685169,8.62044104 122.859259,8.61443795 C123.033348,8.60843486 123.40554,8.96862031 123.975833,9.68899122 L135.465749,24.0964094 C135.735078,24.5822872 136.232213,24.8986454 136.786429,24.9368421 C137.290689,24.9368421 137.542819,24.5706536 137.542819,23.8442796 L137.542819,7.82803304 C137.542819,6.44131904 137.710905,5.57087086 138.047079,5.22869468 C138.383252,4.8865185 139.169657,4.62838559 140.40029,4.52032995 C140.504774,4.33860731 140.548913,4.12842224 140.526355,3.92002086 C140.542861,3.71196326 140.499095,3.50355425 140.40029,3.31971177 C138.251184,3.37373959 136.996538,3.39775195 136.714392,3.39775195 Z" id="Path"></path>
                        <path d="M151.734126,3.32571486 C150.959727,3.32571486 149.933199,3.32571486 148.696562,3.36173341 L146.295325,3.39775195 C145.663,3.39775195 144.262279,3.37574062 142.093162,3.33171795 C141.966014,3.50453516 141.90819,3.71870016 141.931078,3.93202704 C141.907256,4.13330134 141.963292,4.33589335 142.087159,4.49631759 C143.287777,4.53833922 144.080185,4.71843195 144.416358,5.03059268 C144.752531,5.34275341 144.914615,6.15917377 144.914615,7.46784759 L144.914615,20.5665919 C144.914615,21.8752658 144.746528,22.6916861 144.416358,23.0098499 C144.086188,23.3280138 143.305786,23.5081065 142.087159,23.5501281 C141.961593,23.7235313 141.905875,23.9378341 141.931078,24.1504372 C141.905271,24.3491156 141.964079,24.5495002 142.093162,24.7027216 C144.230262,24.6546969 145.646992,24.6366876 146.355356,24.6366876 L148.534478,24.6727061 C149.763111,24.6967185 151.037767,24.7088676 152.358447,24.7088676 C153.596719,24.7143339 154.830212,24.5548478 156.026336,24.2344805 C157.242075,23.8978586 158.396927,23.3710838 159.448098,22.6736769 C160.615628,21.8821696 161.538789,20.7801978 162.11347,19.4920387 C162.816563,17.922979 163.159127,16.2163116 163.115986,14.497467 C163.160728,11.5203256 161.96196,8.6593816 159.808283,6.6034025 C157.683023,4.44569132 154.762016,3.25991432 151.734126,3.32571486 Z M159.249996,19.3239521 C158.874372,20.3496561 158.203958,21.2414537 157.323003,21.8872719 C156.507419,22.4643773 155.594297,22.8894163 154.627616,23.1419179 C153.541622,23.408592 152.426054,23.5356821 151.307906,23.5201127 C149.81914,23.5201127 148.852642,23.3880447 148.40241,23.1299118 C147.954159,22.8713491 147.693036,22.3794115 147.730064,21.8632596 L147.730064,6.11114904 C147.730064,5.04660092 148.650538,4.51432686 150.491486,4.51432686 C152.023485,4.47851391 153.542651,4.80125953 154.92777,5.45681213 C156.124906,6.02415327 157.147197,6.90336514 157.887294,8.00212268 C158.587797,9.05435066 159.111005,10.2143317 159.436091,11.4358907 C159.768256,12.6914056 159.933761,13.9851719 159.928345,15.2838719 C159.955276,16.6610202 159.72523,18.03112 159.249996,19.3239521 L159.249996,19.3239521 Z" id="Shape"></path>
                        <path d="M171.292196,5.07861741 C171.628369,4.76645668 172.414774,4.58636395 173.645408,4.54434232 C173.763583,4.36798177 173.812729,4.15430173 173.783479,3.94403322 C173.797379,3.73471526 173.74936,3.52593582 173.645408,3.34372413 C171.502304,3.39174886 170.043553,3.41576122 169.353198,3.41576122 C168.662842,3.41576122 167.312147,3.41576122 165.151034,3.34372413 C165.026953,3.51800431 164.969448,3.73098571 164.988951,3.94403322 C164.955806,4.1571061 165.012302,4.3743965 165.145031,4.54434232 C166.345649,4.58636395 167.138057,4.76645668 167.47423,5.07861741 C167.810403,5.39077813 167.972487,6.20119541 167.972487,7.47985377 L167.972487,20.5185672 C167.972487,21.8212379 167.8044,22.6316552 167.47423,22.949819 C167.14406,23.2679829 166.363658,23.4480756 165.145031,23.4900972 C165.024502,23.6658356 164.969283,23.8782168 164.988951,24.0904063 C164.955985,24.3044084 165.014839,24.5223869 165.151034,24.6907154 C167.288134,24.6426907 168.704864,24.6186783 169.413229,24.6186783 C170.121593,24.6186783 171.472289,24.6186783 173.66942,24.6907154 C173.792661,24.5165845 173.842273,24.3008825 173.807491,24.0904063 C173.819996,23.8812024 173.772067,23.6728161 173.66942,23.4900972 C172.468802,23.4360694 171.664388,23.2559767 171.322211,22.9438159 C170.980035,22.6316552 170.805946,21.8212379 170.805946,20.5425796 L170.805946,7.47985377 C170.787936,6.17117995 170.956023,5.36076268 171.292196,5.07861741 Z" id="Path"></path>
                        <path d="M194.121951,3.39775195 L190.472071,3.32571486 C190.337631,3.49509085 190.277047,3.71146222 190.303985,3.92602395 C190.273441,4.14083844 190.334418,4.35861393 190.472071,4.52633304 C190.955452,4.56414534 191.436412,4.62827341 191.912813,4.71843195 C192.21859,4.79525109 192.500936,4.94569807 192.735237,5.15665759 C193.005967,5.4007577 193.182323,5.73222214 193.233493,6.09313977 C193.315208,6.66965666 193.349341,7.2519204 193.335546,7.83403613 L193.335546,18.6936276 C193.335546,19.3479645 193.245499,19.6781345 193.095422,19.6781345 C193.035855,19.6734604 192.979213,19.6503843 192.933339,19.6121005 C192.844042,19.5464389 192.763367,19.4697972 192.693215,19.383983 L192.41107,19.0598161 C192.321023,18.9517605 192.188955,18.7776709 192.008863,18.5315441 C191.82877,18.2854174 191.666687,18.0693061 191.516609,17.8772072 L180.218792,3.39174886 L175.764499,3.32571486 C175.640418,3.49999504 175.582913,3.71297644 175.602415,3.92602395 C175.567093,4.14015046 175.626205,4.35908292 175.764499,4.52633304 C176.402394,4.55781727 177.00943,4.81039521 177.481383,5.24070086 C177.911426,5.59342922 178.220053,6.07211537 178.363837,6.60940559 L178.363837,20.176391 C178.363837,21.563105 178.195751,22.4335532 177.859577,22.7817325 C177.523404,23.1299118 176.736999,23.3820416 175.506366,23.4961003 C175.37373,23.6663922 175.31336,23.882002 175.338279,24.0964094 C175.309937,24.3110731 175.370672,24.5279847 175.506366,24.6967185 C177.647468,24.6486938 178.8741,24.6246814 179.186261,24.6246814 L182.83614,24.6967185 C182.959381,24.5225876 183.008992,24.3068856 182.974211,24.0964094 C182.986716,23.8872055 182.938787,23.6788192 182.83614,23.4961003 C182.163794,23.4240632 181.683546,23.3520261 181.395398,23.2919952 C181.089621,23.2151761 180.807275,23.0647291 180.572975,22.8537696 C180.302244,22.6096695 180.125888,22.278205 180.074718,21.9172874 C179.993003,21.3407705 179.958871,20.7585068 179.972665,20.176391 L179.972665,10.2112601 C179.972665,9.14871304 180.062712,8.62044104 180.236801,8.61443795 C180.410891,8.60843486 180.783083,8.96862031 181.353376,9.68899122 L192.843292,24.0964094 C193.112621,24.5822872 193.609756,24.8986454 194.163972,24.9368421 C194.668232,24.9368421 194.920362,24.5706536 194.920362,23.8442796 L194.920362,7.82803304 C194.920362,6.44131904 195.088448,5.57087086 195.424621,5.22869468 C195.760795,4.8865185 196.547199,4.62838559 197.777833,4.52032995 C197.882317,4.33860731 197.926456,4.12842224 197.903898,3.92002086 C197.920404,3.71196326 197.876638,3.50355425 197.777833,3.31971177 C195.652739,3.37173856 194.434111,3.39775195 194.121951,3.39775195 Z" id="Path"></path>
                        <path d="M217.07777,14.5755072 C216.41743,14.5755072 215.048726,14.5755072 212.95965,14.5094732 C212.884571,14.7002683 212.8518,14.9050865 212.863601,15.1097823 C212.841868,15.3181419 212.885954,15.5280748 212.989665,15.7100914 C213.703706,15.7337628 214.410058,15.8653182 215.084744,16.1002923 C215.468942,16.2743819 215.655038,16.6705859 215.655038,17.3009105 L215.655038,22.1934296 C214.538463,23.2499736 212.947644,23.7842487 210.852565,23.7842487 C209.511105,23.8005647 208.186663,23.4828635 206.998581,22.8597727 C205.883114,22.2862436 204.913842,21.4648262 204.165122,20.4585363 C203.445464,19.4857996 202.878636,18.4088277 202.484256,17.2648919 C202.096318,16.1777974 201.893402,15.0333502 201.883947,13.8791487 C201.883947,11.0216774 202.634334,8.68847607 204.135106,6.87954468 C205.490889,5.14311434 207.581202,4.14127463 209.784015,4.17215068 C211.96914,4.17215068 213.607984,4.67040722 214.68854,5.67292341 C215.8418,6.77831919 216.671963,8.1771438 217.089777,9.71900668 L218.212355,9.52690777 C217.870733,7.84999165 217.630176,6.15406428 217.491984,4.44829286 C216.519326,4.33022639 215.566569,4.083963 214.658525,3.71591577 C213.247113,3.22774246 211.763713,2.98017087 210.270265,2.98335718 C208.384474,2.97281616 206.526371,3.43734208 204.867483,4.33423413 C203.13924,5.27918948 201.697895,6.67283508 200.695335,8.36831122 C199.576415,10.2295121 199.004292,12.3682136 199.044485,14.5394887 C199.021155,17.3217339 200.164164,19.9865778 202.196108,21.8872719 C204.316556,23.9281736 207.172797,25.0238961 210.114185,24.9248359 C213.351481,25.0349572 216.516789,23.9542245 219.010766,21.8872719 C218.699192,21.6848075 218.502934,21.3458174 218.482494,20.9748021 L218.482494,17.2648919 C218.442156,16.8451547 218.569479,16.426501 218.836676,16.1002923 C219.155133,15.8391899 219.553456,15.6951156 219.965257,15.6920821 C220.091923,15.5191998 220.147756,15.3044574 220.121337,15.091773 C220.14479,14.8792931 220.089233,14.6656127 219.965257,14.4914639 C218.668589,14.5574979 217.702092,14.5755072 217.07777,14.5755072 Z" id="Path"></path>
                        <path d="M235.447228,16.5205087 C235.215885,15.9182587 234.862276,15.3704704 234.408694,14.9116803 C233.977118,14.4703078 233.493295,14.0832493 232.967952,13.7590869 C232.415285,13.4262363 231.839521,13.1333386 231.245065,12.8826356 L230.248552,12.4984378 L228.933875,11.9761689 C228.48951,11.7780489 228.058393,11.5514618 227.64321,11.2978196 C227.189994,11.0444239 226.767061,10.7403149 226.382561,10.3913529 C226.038051,10.0701922 225.748113,9.69509733 225.524119,9.28078104 C225.291051,8.8341762 225.169531,8.33779866 225.169937,7.83403613 C225.181891,6.88188841 225.570397,5.97321576 226.250493,5.30673486 C226.887468,4.58884019 227.800049,4.17621389 228.759785,4.17215068 C229.178973,4.17019103 229.597294,4.21041423 230.008428,4.2922125 C230.356398,4.36229067 230.694904,4.47311079 231.016947,4.6223825 C231.308057,4.76072474 231.578736,4.93848409 231.821362,5.1506545 C232.046397,5.34329209 232.255208,5.55411085 232.445683,5.78097904 C232.635593,6.0260348 232.800499,6.28948273 232.937936,6.56738395 C233.079607,6.84639869 233.205862,7.13297678 233.316131,7.42582595 C233.418184,7.69596504 233.520236,8.02613504 233.628292,8.34429886 C233.99708,8.37464202 234.367413,8.30843719 234.702845,8.15219995 C234.589959,6.72848603 234.389476,5.3130781 234.102536,3.91401777 C233.492314,3.78109007 232.890865,3.61067945 232.301609,3.40375504 C231.250738,3.08795783 230.157025,2.9380786 229.05994,2.95952632 C227.38659,2.9200363 225.75544,3.48720745 224.467575,4.5563485 C223.21865,5.56790898 222.512782,7.10394746 222.558592,8.71048741 C222.54716,9.62751909 222.801531,10.5282405 223.290969,11.3038227 C223.736405,12.0295012 224.329554,12.6533301 225.031866,13.1347654 C225.822297,13.6523782 226.662995,14.0888174 227.541158,14.4374361 C227.745263,14.5214794 228.111451,14.6715567 228.65173,14.8756618 C229.192008,15.0797669 229.606221,15.2538565 229.900372,15.3799214 C230.283033,15.5521675 230.652255,15.7528318 231.004941,15.9802305 C231.394313,16.2145547 231.74136,16.5128931 232.03147,16.8626849 C232.305686,17.2277089 232.522313,17.6326194 232.6738,18.063303 C232.865509,18.5882063 232.961084,19.1433541 232.955946,19.7021469 C233.033971,20.8079026 232.64661,21.8959939 231.887396,22.7036923 C231.052589,23.4440718 229.957592,23.8220295 228.843828,23.7542332 C225.574145,23.7542332 223.58312,22.2014337 222.870753,19.0958347 C222.514863,18.9764651 222.125277,19.0112884 221.7962,19.1918841 C221.863538,20.8696832 222.074416,22.5386354 222.426524,24.1804527 C223.351563,24.2162256 224.270658,24.3449392 225.169937,24.5646505 C226.285959,24.8112362 227.424781,24.9400075 228.567686,24.9488483 C230.007953,24.980858 231.428365,24.6085976 232.667797,23.874295 C233.600766,23.2997492 234.379634,22.506458 234.936966,21.563105 C235.486358,20.6582862 235.777047,19.6201098 235.777398,18.5615596 C235.799763,17.8662982 235.687654,17.1732599 235.447228,16.5205087 L235.447228,16.5205087 Z" id="Path"></path>
                        <path d="M21.7371922,0 C19.4240011,0.200105529 16.5865402,0.298156013 13.2248093,0.294153953 L9.95912782,0.294153953 C6.62140927,0.294153953 3.67189061,0.196103468 1.11057182,0 C0.996513091,0 0.942485273,0.0360210438 0.942485273,0.114061226 C0.757241138,1.96876126 0.442308652,3.80820769 0,5.61889559 C0.417965675,5.7564847 0.856876492,5.81947653 1.29666764,5.80499141 C1.64484691,4.29821559 2.23314982,3.22966541 3.09759491,2.60534395 C4.04117294,1.94978523 5.17330164,1.62089868 6.32125473,1.66886177 L8.17620982,1.66886177 C8.80279386,1.64070941 9.37271774,2.02962743 9.57493,2.62335323 C9.88019176,3.52506325 10.0145582,4.47580769 9.971134,5.42679668 L9.971134,20.0203107 C9.971134,21.5390927 9.75502273,22.4815779 9.32880327,22.8537696 C8.90258382,23.2259612 7.89406454,23.4540787 6.32725782,23.4540787 C6.21242188,23.671543 6.16241728,23.917399 6.18318364,24.1624434 C6.16043559,24.3907787 6.19984567,24.6210165 6.29724236,24.8287865 C8.78852509,24.7747587 10.5714431,24.7447432 11.6339902,24.7447432 C12.6965373,24.7447432 14.3713996,24.7447432 16.904704,24.8287865 C17.0661067,24.6470944 17.1367149,24.4021722 17.0968029,24.1624434 C17.1148986,23.9113748 17.0471648,23.6616065 16.904704,23.4540787 C15.3138849,23.3940478 14.3053656,23.1779365 13.9031585,22.817751 C13.5009515,22.4575656 13.2668309,21.5150803 13.2668309,19.9962983 L13.2668309,5.54085541 C13.2217968,4.55768328 13.3498067,3.5742424 13.6450256,2.63535941 C13.8270121,2.04450173 14.3839675,1.65019706 15.0017242,1.67486486 L15.8361538,1.67486486 C17.0768867,1.60699157 18.3081087,1.92580885 19.3599682,2.58733468 C20.287964,3.37074875 20.8878651,4.47413834 21.0408336,5.6789265 C21.4751498,5.70171509 21.9096891,5.63847227 22.319492,5.49283068 C22.0411283,3.7043805 21.8806996,1.89955761 21.8392447,0.0900488619 C21.8331296,0.0384205355 21.7891801,-0.000358393916 21.7371922,0 Z" id="Path"></path>
                        <path d="M44.3688449,5.03059268 C44.705018,4.71242886 45.4914229,4.53833922 46.7220565,4.4903145 C46.8525628,4.31913344 46.9107544,4.10360904 46.88414,3.89000541 C46.9047362,3.67686473 46.8471294,3.46350636 46.7220565,3.28969632 C44.5689479,3.33772104 43.1362102,3.36173341 42.4238434,3.36173341 C41.7755096,3.36173341 40.3347678,3.36173341 38.1136242,3.28969632 C38.0349617,3.47959778 38.0000811,3.68477793 38.0115716,3.89000541 C37.984532,4.09860551 38.0289695,4.31021279 38.1376365,4.4903145 C39.3682702,4.53233613 40.1546751,4.71242886 40.4968513,5.02458959 C40.8390274,5.33675032 41.0131171,6.15317068 41.0131171,7.46784759 L41.0131171,12.7265552 L29.6612722,12.7265552 L29.6612722,7.47985377 C29.6612722,6.16517686 29.8293587,5.3487565 30.1715349,5.03659577 C30.5137111,4.72443504 31.300116,4.54434232 32.5427558,4.50232068 C32.6609311,4.32596013 32.7100775,4.1122801 32.6808269,3.90201159 C32.6923279,3.69289259 32.6444629,3.48478363 32.5427558,3.3017025 C30.373639,3.34972722 28.9308961,3.37373959 28.2145273,3.37373959 C27.5781996,3.37373959 26.1574681,3.34972722 23.9523327,3.3017025 C23.8301532,3.47687487 23.7728389,3.68914996 23.7902493,3.90201159 C23.7580402,4.11597099 23.816813,4.33364806 23.9523327,4.50232068 C25.1829664,4.54434232 25.9633682,4.72443504 26.3055444,5.04259886 C26.6477205,5.36076268 26.809804,6.17117995 26.809804,7.48585686 L26.809804,20.6866538 C26.809804,22.0013307 26.6417174,22.817751 26.3055444,23.1419179 C25.9693713,23.4660849 25.1829664,23.6461776 23.9523327,23.6881992 C23.8301532,23.8633716 23.7728389,24.0756467 23.7902493,24.2885083 C23.7580402,24.5024677 23.816813,24.7201448 23.9523327,24.8888174 C26.1054413,24.8407927 27.538179,24.8167803 28.2505458,24.8167803 C28.8908755,24.8167803 30.3216122,24.8407927 32.5427558,24.8888174 C32.6653979,24.7144187 32.7149525,24.4989635 32.6808269,24.2885083 C32.6898145,24.0796125 32.6421045,23.8721777 32.5427558,23.6881992 C31.3121222,23.6341714 30.5257173,23.4480756 30.177538,23.1359149 C29.8293587,22.8237541 29.6612722,22.0073338 29.6612722,20.6926569 L29.6612722,14.1252754 L41.0131171,14.1252754 L41.0131171,20.6446321 C41.0131171,21.959309 40.8390274,22.7757294 40.4968513,23.0998963 C40.1546751,23.4240632 39.3682702,23.6041559 38.1376365,23.6461776 C38.0403967,23.8305878 37.996727,24.0385387 38.0115716,24.2464867 C37.9899446,24.4521605 38.0252471,24.6598227 38.1136242,24.8467958 C40.2907451,24.798771 41.7374901,24.7747587 42.4538589,24.7747587 C43.0901865,24.7747587 44.5109181,24.798771 46.7160534,24.8467958 C46.8515732,24.6781231 46.910346,24.4604461 46.8781369,24.2464867 C46.8955472,24.033625 46.838233,23.82135 46.7160534,23.6461776 C45.4854198,23.5921498 44.705018,23.4060539 44.3628418,23.0938932 C44.0206656,22.7817325 43.8585822,21.9653121 43.8585822,20.6446321 L43.8585822,7.47985377 C43.8585822,6.15917377 44.0266687,5.3487565 44.3688449,5.03059268 Z" id="Path"></path>
                        <path d="M65.0915147,19.1918841 C64.2911026,22.1213925 62.8463587,23.5841456 60.7572831,23.5801436 L56.2489618,23.5801436 C55.4625569,23.5801436 55.0483436,23.0998963 55.0483436,22.1394018 L55.0483436,14.0472352 L58.0498891,14.0472352 C58.7380233,14.0109834 59.4263373,14.1151496 60.0729307,14.3533929 C60.422369,14.4686612 60.7089552,14.7226808 60.8653387,15.0557545 C60.97598,15.4838557 61.0403813,15.9225899 61.0574376,16.3644283 C61.38577,16.5999066 61.8276709,16.5999066 62.1560033,16.3644283 C62.1139816,14.8216339 62.0899693,13.8491332 62.0899693,13.4469261 C62.0899693,12.846617 62.0899693,11.8921256 62.1560033,10.5534363 C61.9860249,10.4205063 61.7694784,10.3620388 61.5556942,10.3913529 C61.3612663,10.3626977 61.1644191,10.4246272 61.0214191,10.5594394 C60.9793974,11.5619556 60.8053078,12.1982832 60.4931471,12.4684223 C60.1809864,12.7385614 59.3585629,12.8706294 58.0078674,12.8706294 L55.006322,12.8706294 L55.006322,6.05111813 C54.9931526,5.67156311 55.1003109,5.29755979 55.3124796,4.98256795 C55.5129715,4.70439706 55.840409,4.5463238 56.1829278,4.56235159 L59.6707236,4.56235159 C60.8113109,4.56235159 61.6157251,4.83849377 62.07196,5.39077813 C62.687171,6.25738111 63.1369499,7.23020604 63.3986431,8.26025559 C63.7752943,8.32756182 64.1636308,8.26846714 64.5032118,8.09216904 C64.1790449,5.66692032 63.9309171,4.07810226 63.7588285,3.32571486 C63.7588285,3.25968086 63.7168069,3.22966541 63.6267605,3.22966541 C63.0909892,3.31782534 62.5489021,3.3619954 62.005926,3.36173341 L53.5415678,3.36173341 L49.2973825,3.27769013 C49.1958467,3.46066504 49.1499459,3.66930533 49.1653145,3.87799922 C49.1380794,4.08737654 49.1847891,4.2996933 49.2973825,4.47830832 C50.5400224,4.52032995 51.3324304,4.70042268 51.6986189,5.0185865 C52.0648074,5.33675032 52.2148847,6.14716759 52.2148847,7.4618445 L52.2148847,20.6506352 C52.2148847,21.9653121 52.0407951,22.7817325 51.6986189,23.1058994 C51.3564427,23.4300663 50.5700378,23.610159 49.3394042,23.6521807 C49.2421643,23.8365909 49.1984946,24.0445418 49.2133393,24.2524898 C49.1845361,24.4619326 49.2313631,24.6747824 49.3454073,24.8527989 C50.4319667,24.8527989 51.8727085,24.8107772 53.6616296,24.7867649 L60.7572831,24.7867649 C61.8138271,24.7867649 63.2285555,24.8087762 65.0014684,24.8527989 C65.5151155,23.0485057 65.916095,21.2140247 66.2020865,19.3599707 C65.8648311,19.1702373 65.4698116,19.1104506 65.0915147,19.1918841 L65.0915147,19.1918841 Z" id="Path"></path>
                    </g>
                    <g id="Group-9" transform="translate(139.490841, 45.075981)">
                        <path d="M0,5.3739866 L0.432222545,4.86372387 C0.989697027,5.42797931 1.75215243,5.74205895 2.54531054,5.73417205 C3.37373709,5.73417205 3.92001836,5.29594642 3.92001836,4.68363115 L3.92001836,4.68363115 C3.92001836,4.08332205 3.61386073,3.78316751 2.31719309,3.48301296 C0.900463636,3.17685533 0.246126727,2.71461733 0.246126727,1.68208569 L0.246126727,1.68208569 C0.246126727,0.709584964 1.09856564,0.00122023729 2.27517145,0.00122023729 C3.06579155,-0.0205100517 3.83690092,0.248630616 4.44228727,0.757609692 L4.03407709,1.29788787 C3.53622165,0.86102301 2.89549193,0.62181725 2.23314982,0.625541692 C1.42873564,0.625541692 0.918472909,1.06376733 0.918472909,1.62205478 L0.918472909,1.62205478 C0.918472909,2.22236387 1.23663673,2.52852151 2.59333527,2.82267296 C3.95003382,3.11682442 4.60437073,3.62708715 4.60437073,4.56957242 L4.60437073,4.56957242 C4.60437073,5.62611642 3.72191636,6.31647187 2.49728582,6.31647187 C1.57623942,6.32592297 0.685137922,5.98961784 0,5.3739866 Z" id="Path"></path>
                        <path d="M9.65897327,0.0612511464 L10.3133102,0.0612511464 L13.1227567,6.27445024 L12.3723704,6.27445024 L11.6519995,4.64160951 L8.29026854,4.64160951 L7.55789145,6.27445024 L6.84352363,6.27445024 L9.65897327,0.0612511464 Z M11.3758573,4.01728805 L9.97713709,0.871668419 L8.56641073,4.01728805 L11.3758573,4.01728805 Z" id="Shape"></path>
                        <polygon id="Path" points="14.3834058 0.133288237 15.1578045 0.133288237 17.3489327 5.44602369 19.5520671 0.133288237 20.2964504 0.133288237 17.6490873 6.31647187 17.0487782 6.31647187"></polygon>
                        <path d="M24.3785522,0.0612511464 L25.0328891,0.0612511464 L27.8423356,6.27445024 L27.0919493,6.27445024 L26.3715784,4.64160951 L23.0158505,4.64160951 L22.2834735,6.27445024 L21.5691056,6.27445024 L24.3785522,0.0612511464 Z M26.0954362,4.01728805 L24.696716,0.871668419 L23.2979958,4.01728805 L26.0954362,4.01728805 Z" id="Shape"></path>
                        <polygon id="Path" points="30.5017049 0.133288237 31.1560418 0.133288237 35.0400416 5.07983515 35.0400416 0.133288237 35.7183909 0.133288237 35.7183909 6.27445024 35.1661065 6.27445024 31.1800542 1.2138446 31.1800542 6.27445024 30.5017049 6.27445024"></polygon>
                        <polygon id="Path" points="38.9360476 0.133288237 39.5903845 0.133288237 43.4743844 5.07983515 43.4743844 0.133288237 44.1527336 0.133288237 44.1527336 6.27445024 43.6004493 6.27445024 39.6143969 1.2138446 39.6143969 6.27445024 38.9360476 6.27445024"></polygon>
                        <path d="M49.6395587,0.0612511464 L50.3119049,0.0612511464 L53.1213514,6.27445024 L52.3529558,6.27445024 L51.6325849,4.64160951 L48.2768571,4.64160951 L47.54448,6.27445024 L46.8301122,6.27445024 L49.6395587,0.0612511464 Z M51.3564427,4.01728805 L49.9577225,0.871668419 L48.5469962,4.01728805 L51.3564427,4.01728805 Z" id="Shape"></path>
                        <polygon id="Path" points="55.7747176 0.133288237 56.4710762 0.133288237 56.4710762 2.87670078 60.0309091 2.87670078 60.0309091 0.133288237 60.7272676 0.133288237 60.7272676 6.27445024 60.0309091 6.27445024 60.0309091 3.49501915 56.4710762 3.49501915 56.4710762 6.26844715 55.7747176 6.26844715"></polygon>
                        <path d="M63.4646771,7.03684278 C63.9029027,6.88076242 64.0649862,6.64664187 64.0649862,6.26844715 L63.7468224,6.26844715 L63.7468224,5.34397115 L64.5572396,5.34397115 L64.5572396,6.13637915 C64.5907772,6.42614119 64.50574,6.71715384 64.3214581,6.94326661 C64.1371762,7.16937939 63.8693054,7.31138261 63.5787358,7.33699733 L63.4646771,7.03684278 Z" id="Path"></path>
                        <path d="M71.3707478,3.20687078 L71.3707478,3.20687078 C71.3447483,2.37041733 71.6589543,1.55915527 72.2415821,0.958426388 C72.8242099,0.357697509 73.6254823,0.0188255345 74.4623396,0.01922951 C75.3066356,-0.016793567 76.1316234,0.278306495 76.7615234,0.841652964 L76.3112916,1.36992496 C75.8030989,0.895562375 75.1270684,0.642860884 74.4323242,0.667563328 C73.7835025,0.682883835 73.1685121,0.960185994 72.7274618,1.43629414 C72.2864115,1.91240229 72.0568652,2.54676659 72.0911187,3.1948646 L72.0911187,3.1948646 C72.0455357,3.86666978 72.2841194,4.52674685 72.7486981,5.01415495 C73.2132768,5.50156306 73.8611588,5.7715127 74.5343767,5.75818442 C75.1846046,5.76306626 75.8180508,5.55191751 76.335304,5.15787533 L76.335304,3.60907787 L74.4563365,3.60907787 L74.4563365,3.00876878 L77.0016471,3.00876878 L77.0016471,5.47003605 C76.3199595,6.07565455 75.4402229,6.41089398 74.5283736,6.41252133 C73.6726696,6.44586353 72.8425105,6.11717165 72.2415644,5.50708568 C71.6406183,4.89699971 71.3244938,4.0619741 71.3707478,3.20687078 Z" id="Path"></path>
                        <polygon id="Path" points="80.0091956 0.133288237 84.4694922 0.133288237 84.4694922 0.733597328 80.7055542 0.733597328 80.7055542 2.84068224 84.0732882 2.84068224 84.0732882 3.47700987 80.7055542 3.47700987 80.7055542 5.6381226 84.5295231 5.6381226 84.5295231 6.27445024 80.0272049 6.27445024"></polygon>
                        <path d="M87.098846,3.20687078 L87.098846,3.20687078 C87.098846,1.46959303 88.5071879,0.0612511464 90.2444656,0.0612511464 C91.9817434,0.0612511464 93.3900853,1.46959303 93.3900853,3.20687078 C93.3900853,3.20687078 93.3900853,3.20687078 93.3900853,3.20687078 C93.3900853,4.94414854 91.9817434,6.35249042 90.2444656,6.35249042 C88.5071879,6.35249042 87.098846,4.94414854 87.098846,3.20687078 Z M92.6697143,3.20687078 L92.6697143,3.20687078 C92.6957467,2.54392436 92.4517195,1.89877827 91.9934569,1.41901688 C91.5351942,0.939255496 90.9019055,0.665927684 90.2384625,0.66155795 C89.5791589,0.660650974 88.9484845,0.930868523 88.4943592,1.4088354 C88.0402339,1.88680227 87.8026121,2.53046651 87.8372262,3.18886151 L87.8372262,3.18886151 C87.8111939,3.85180793 88.055221,4.49695402 88.5134836,4.97671541 C88.9717463,5.4564768 89.605035,5.72980461 90.268478,5.73417434 C90.9277816,5.73508132 91.5584561,5.46486377 92.0125814,4.98689689 C92.4667066,4.50893002 92.7043284,3.86526579 92.6697143,3.20687078 L92.6697143,3.20687078 Z" id="Shape"></path>
                        <path d="M96.3195936,0.133288237 L98.9729598,0.133288237 C99.6181006,0.0875409758 100.254418,0.303975417 100.737869,0.733597328 C101.047209,1.05617218 101.217512,1.48731875 101.212113,1.93421551 L101.212113,1.93421551 C101.214437,2.88161886 100.482333,3.6688272 99.5372503,3.73514278 L101.434227,6.25644096 L100.581788,6.25644096 L98.7808609,3.8552046 L97.0159522,3.8552046 L97.0159522,6.25644096 L96.3195936,6.25644096 L96.3195936,0.133288237 Z M98.9369413,3.24889242 C99.8614173,3.24889242 100.521757,2.77464824 100.521757,1.98224024 L100.521757,1.98224024 C100.521757,1.22585078 99.9214482,0.781622055 98.9429443,0.781622055 L97.0159522,0.781622055 L97.0159522,3.28491096 L98.9369413,3.24889242 Z" id="Shape"></path>
                        <path d="M103.877485,3.20687078 L103.877485,3.20687078 C103.851486,2.37041733 104.165692,1.55915527 104.748319,0.958426388 C105.330947,0.357697509 106.13222,0.0188255345 106.969077,0.01922951 C107.813373,-0.016793567 108.638361,0.278306495 109.268261,0.841652964 L108.818029,1.36992496 C108.309836,0.895562375 107.633806,0.642860884 106.939061,0.667563328 C106.29024,0.682883835 105.675249,0.960185994 105.234199,1.43629414 C104.793149,1.91240229 104.563602,2.54676659 104.597856,3.1948646 L104.597856,3.1948646 C104.552273,3.86666978 104.790857,4.52674685 105.255435,5.01415495 C105.720014,5.50156306 106.367896,5.7715127 107.041114,5.75818442 C107.691342,5.76306626 108.324788,5.55191751 108.842041,5.15787533 L108.842041,3.60907787 L106.963074,3.60907787 L106.963074,3.00876878 L109.508384,3.00876878 L109.508384,5.47003605 C108.826697,6.07565455 107.94696,6.41089398 107.035111,6.41252133 C106.178874,6.44774681 105.347593,6.11965473 104.746221,5.50913555 C104.144848,4.89861638 103.82934,4.06247874 103.877485,3.20687078 Z" id="Path"></path>
                        <polygon id="Path" points="112.575964 0.133288237 113.272322 0.133288237 113.272322 6.27445024 112.575964 6.27445024"></polygon>
                        <path d="M118.819178,0.0612511464 L119.473515,0.0612511464 L122.282962,6.27445024 L121.532575,6.27445024 L120.812205,4.64160951 L117.456477,4.64160951 L116.7241,6.27445024 L116.009732,6.27445024 L118.819178,0.0612511464 Z M120.548069,4.01728805 L119.149348,0.871668419 L117.738622,4.01728805 L120.548069,4.01728805 Z" id="Shape"></path>
                    </g>
                    <g id="Group-8">
                        <path d="M54.9853303,48.7030679 C54.9853303,50.6600756 56.4560876,49.8076367 56.4560876,49.8076367 C66.7393823,46.4999336 80.9366923,48.7030679 85.3489641,49.2073276 C87.0238265,49.3934234 85.9192578,48.1447805 85.9192578,48.1447805 C77.6782019,40.1916466 68.2634457,33.552725 58.004885,28.4606454 C57.5126316,28.9528989 55.4715807,29.4391492 55.4715807,29.4391492 C53.3524896,29.4391492 49.024261,25.5191309 49.024261,25.5191309 C52.6591785,32.7270873 54.6926593,40.6357509 54.9853303,48.7030679 L54.9853303,48.7030679 Z" id="Path"></path>
                        <path d="M26.1764971,54.2499239 C26.1404785,54.850233 26.0684414,55.3845081 27.3771152,54.982301 C38.2307036,51.7166196 51.4495098,53.9197539 51.9417632,53.9197539 C52.4340167,53.9197539 52.5961001,53.8357107 52.5961001,52.7791667 C52.5961001,51.7226227 53.1964092,37.1110994 46.0407249,23.7302098 C46.0407249,23.7302098 42.3908456,22.7396998 40.3557978,19.9662718 C40.3557978,19.9662718 42.7210156,16.7846336 54.3129841,16.5385069 C54.5802419,16.5368725 54.8333469,16.4181493 55.0054648,16.2136871 C55.1775828,16.0092248 55.2514074,15.739582 55.2074447,15.4759598 C54.8832778,12.8646152 50.1888607,3.27767904 45.782592,0.582291221 C45.782592,0.582291221 42.0666787,-1.33269478 35.7874456,1.7829094 C35.592435,1.82292809 35.4235671,1.94382141 35.3228326,2.11552803 C35.222098,2.28723466 35.1989606,2.49362319 35.2591736,2.68337304 C35.6253621,5.0846094 36.2376774,7.82201886 34.7669201,10.6374685 C34.7669201,10.6374685 32.2756374,4.63437758 28.4396623,0.474235585 C28.4396623,0.474235585 18.3604727,-0.282153869 14.9327078,3.47578104 C14.9327078,3.47578104 14.812646,3.78193868 15.6290663,5.61888449 C16.2293754,6.98158613 17.8322007,13.6150016 16.5235269,16.1483059 C16.5235269,16.1483059 16.2293754,17.5650354 15.3229087,17.210853 C12.1412705,16.0102349 12.6575363,16.3764234 10.4243865,15.493969 C10.4243865,15.493969 9.52392287,15.2478423 9.12171578,16.5565161 C8.71950869,17.8651899 11.2408069,28.4006145 0.30917833,50.5700292 C0.30917833,50.5700292 -0.627303851,51.7106165 0.759410148,51.8726999 C2.14612415,52.0347834 10.2683061,52.7731636 25.5281632,53.3434572 C25.9165493,53.4749819 26.1775313,53.8398735 26.1764971,54.2499239 Z M31.7233531,16.7906367 C31.7233531,16.7906367 32.7018569,17.2828901 32.6238167,18.1773507 C32.5457765,19.0718112 33.0320269,26.6657212 30.1205278,33.5992912 C30.1205278,33.5992912 30.2826112,26.5816779 26.4466361,21.1128621 C26.4466361,21.1128621 23.1809547,19.8041883 19.5070631,18.4174743 C23.4049129,16.9630461 27.580723,16.4069554 31.7233531,16.7906367 Z" id="Shape"></path>
                        <path d="M9.15173124,59.9168418 C9.65599087,60.8173054 10.3103278,62.0179236 10.9106369,63.0324459 C15.1100454,62.72981 19.3276776,62.7880535 23.5171278,63.2065356 C35.1871365,64.3171074 40.3858132,64.1790363 46.0827465,63.2725696 C58.5031416,61.2975527 65.5627765,61.5676918 72.4183063,62.8223378 C73.384804,60.331055 74.0331378,58.5721494 75.29979,57.5936456 C77.7010263,55.7506967 83.5900585,55.4685514 83.7461389,55.4325328 C84.418485,55.2644463 85.4390105,54.1538745 86.267437,53.0312965 C60.5622018,59.1124276 30.8408987,59.9828758 15.8871992,59.9828758 C13.0837558,59.9828758 10.7965781,59.9528603 9.15173124,59.9168418 Z" id="Path"></path>
                        <path d="M86.0753381,50.7801374 C86.0753381,50.7801374 72.1121487,54.1478714 49.4564836,56.369015 C32.7859001,58.0018558 10.3103278,57.8157599 9.19975596,57.755729 C8.59944687,57.7137074 8.22125215,58.0798959 8.29929233,58.3260227 C8.29929233,58.3560381 8.37132942,58.482103 8.47938506,58.6742019 C17.9102409,58.8903132 55.9038032,59.2024739 87.2339347,51.548533 C87.4044177,51.3080681 87.5211215,51.0337117 87.5761109,50.7441188 C87.5160799,50.3839334 86.0753381,50.7801374 86.0753381,50.7801374 Z" id="Path"></path>
                    </g>
                </g>
            </g>
        </g>
    </g>
</svg>