<svg viewBox="0 0 620 120" xmlns="http://www.w3.org/2000/svg">
  <defs>
    <style>@import url('https://fonts.googleapis.com/css2?family=Fraunces:opsz,wght@9..144,700&family=DM+Sans:wght@400;500&display=swap');</style>
  </defs>
  <g transform="translate(32, 10)">
    <rect x="0" y="0" width="24" height="24" rx="4" fill="#1D6B3B"/>
    <rect x="29" y="0" width="24" height="24" rx="4" fill="#1D6B3B"/>
    <rect x="58" y="0" width="24" height="24" rx="4" fill="#D3EAD8"/>
    <rect x="0" y="29" width="24" height="24" rx="4" fill="#1D6B3B"/>
    <rect x="29" y="29" width="24" height="24" rx="4" fill="#D3EAD8"/>
    <rect x="58" y="29" width="24" height="24" rx="4" fill="#D3EAD8"/>
    <rect x="0" y="58" width="24" height="24" rx="4" fill="#D3EAD8"/>
    <rect x="29" y="58" width="24" height="24" rx="4" fill="#D3EAD8"/>
    <rect x="58" y="58" width="24" height="24" rx="4" fill="#D3EAD8"/>
    <path d="M4 12 L9 18 L21 6" stroke="white" stroke-width="2.2" stroke-linecap="round" stroke-linejoin="round" fill="none"/>
    <path d="M33 12 L38 18 L50 6" stroke="white" stroke-width="2.2" stroke-linecap="round" stroke-linejoin="round" fill="none"/>
    <path d="M4 41 L9 47 L21 35" stroke="white" stroke-width="2.2" stroke-linecap="round" stroke-linejoin="round" fill="none"/>
    <text x="96" y="52" font-family="'Fraunces', serif" font-size="50" font-weight="700" fill="#1D6B3B">Birdie Chart</text>
    <text x="98" y="72" font-family="'DM Sans', sans-serif" font-size="11" font-weight="500" fill="#888780" letter-spacing="0.1em">ONE BIRDIE AT A TIME.</text>
  </g>
</svg>
